<svg width="1440" height="366" viewBox="0 0 1440 366" fill="none" xmlns="http://www.w3.org/2000/svg">
<g id="Frame 2147238421" clipPath="url(#clip0_917_719)">
<path id="Union" d="M919.379 361.407C920.482 361.383 921.397 362.258 921.422 363.362C921.447 364.466 920.572 365.381 919.468 365.406C915.568 365.494 911.665 365.521 907.765 365.489C906.661 365.48 905.773 364.578 905.782 363.473C905.791 362.369 906.693 361.481 907.797 361.49C911.657 361.521 915.519 361.494 919.379 361.407ZM884.645 360.63C888.495 360.882 892.354 361.081 896.216 361.225C897.32 361.267 898.18 362.195 898.139 363.299C898.098 364.402 897.171 365.263 896.067 365.223C892.167 365.077 888.271 364.876 884.384 364.622C883.282 364.55 882.447 363.597 882.519 362.495C882.592 361.393 883.543 360.558 884.645 360.63ZM942.495 360.145C943.595 360.049 944.565 360.862 944.662 361.962C944.758 363.062 943.945 364.032 942.845 364.129C938.958 364.471 935.064 364.747 931.166 364.959C930.063 365.019 929.119 364.173 929.059 363.07C929 361.968 929.845 361.025 930.948 360.965C934.802 360.755 938.653 360.483 942.495 360.145ZM861.566 358.496C865.395 358.951 869.239 359.359 873.093 359.716C874.193 359.818 875.002 360.793 874.9 361.892C874.798 362.992 873.823 363.801 872.723 363.699C868.834 363.339 864.956 362.928 861.093 362.469C859.997 362.338 859.214 361.342 859.344 360.246C859.475 359.15 860.47 358.366 861.566 358.496ZM965.457 357.306C966.547 357.132 967.573 357.873 967.749 358.963C967.924 360.053 967.182 361.08 966.091 361.256C962.238 361.875 958.369 362.422 954.492 362.9C953.396 363.035 952.398 362.257 952.262 361.161C952.127 360.065 952.907 359.066 954.003 358.931C957.833 358.458 961.652 357.918 965.457 357.306ZM836.375 356.664C836.596 355.582 837.653 354.884 838.735 355.104C840.586 355.482 842.456 355.82 844.343 356.117C846.249 356.417 848.159 356.704 850.074 356.981C851.167 357.139 851.925 358.153 851.767 359.246C851.609 360.339 850.595 361.098 849.502 360.94C847.571 360.661 845.644 360.37 843.722 360.068C841.774 359.762 839.844 359.413 837.934 359.023C836.853 358.802 836.154 357.746 836.375 356.664ZM988.127 352.756C989.2 352.496 990.281 353.154 990.542 354.227C990.802 355.301 990.143 356.382 989.07 356.642C985.274 357.563 981.457 358.407 977.625 359.176C976.542 359.393 975.487 358.69 975.27 357.607C975.053 356.525 975.755 355.47 976.838 355.253C980.619 354.495 984.384 353.664 988.127 352.756ZM814.325 349.68C814.735 348.654 815.898 348.155 816.923 348.564C820.435 349.967 824.022 351.223 827.684 352.322C828.742 352.64 829.341 353.756 829.024 354.813C828.706 355.871 827.591 356.472 826.533 356.154C822.755 355.02 819.058 353.723 815.44 352.278C814.415 351.868 813.915 350.705 814.325 349.68ZM1018.78 335.098C1019.68 334.738 1020.61 334.911 1021.52 335.272C1022.47 335.649 1023.62 336.319 1025.03 337.132L1027.74 338.697C1029.15 339.51 1030.3 340.173 1031.11 340.808C1031.93 341.458 1032.57 342.224 1032.65 343.29C1032.73 344.356 1032.22 345.211 1031.51 345.979C1030.82 346.732 1029.78 347.569 1028.52 348.591L1025.12 351.335L1025.12 351.336C1023.01 353.044 1021.34 354.396 1020.02 355.197C1018.73 355.97 1017.36 356.484 1016.09 355.75C1014.82 355.016 1014.58 353.569 1014.6 352.072C1014.63 350.52 1014.97 348.399 1015.39 345.715L1016.07 341.409L1016.07 341.4C1016.33 339.798 1016.53 338.483 1016.84 337.507C1017.15 336.509 1017.63 335.637 1018.6 335.177L1018.78 335.098ZM1017.02 348.259C1016.78 349.879 1016.62 351.138 1016.6 352.11C1016.58 353.544 1016.87 353.888 1017.09 354.016C1017.31 354.145 1017.75 354.225 1018.98 353.484C1019.82 352.982 1020.83 352.216 1022.11 351.195L1017.02 348.259ZM1004.98 348.096C1006.03 347.766 1007.15 348.355 1007.48 349.409C1007.81 350.463 1007.22 351.584 1006.17 351.913C1006.16 351.917 1006.15 351.921 1006.13 351.925C1006.12 351.928 1006.11 351.929 1006.1 351.931C1006.09 351.936 1006.07 351.944 1006.06 351.948C1006.05 351.952 1006.03 351.956 1006.02 351.96C1004.16 352.541 1002.28 353.1 1000.4 353.64C999.344 353.946 998.235 353.333 997.929 352.271C997.625 351.21 998.238 350.102 999.299 349.797C1001.15 349.264 1003 348.713 1004.83 348.14C1004.85 348.137 1004.86 348.132 1004.87 348.129C1004.88 348.125 1004.9 348.122 1004.91 348.118C1004.92 348.114 1004.93 348.11 1004.94 348.106C1004.95 348.103 1004.97 348.099 1004.98 348.096ZM1017.37 346.026C1017.36 346.079 1017.35 346.132 1017.34 346.183C1017.44 346.205 1017.53 346.242 1017.61 346.292L1023.51 349.698C1023.6 349.748 1023.68 349.809 1023.74 349.879C1023.78 349.846 1023.83 349.813 1023.87 349.78L1027.08 347.181L1018.01 341.947L1017.37 346.026ZM793.782 339.046C794.353 338.101 795.582 337.798 796.527 338.369C799.783 340.337 803.115 342.18 806.521 343.887C807.508 344.381 807.908 345.583 807.414 346.57C806.919 347.558 805.717 347.957 804.729 347.463C801.225 345.708 797.801 343.813 794.458 341.792C793.513 341.22 793.211 339.991 793.782 339.046ZM1020.78 337.132C1020.02 336.83 1019.69 336.873 1019.46 336.981H1019.46C1019.23 337.09 1018.99 337.321 1018.74 338.103C1018.6 338.56 1018.48 339.128 1018.36 339.839C1018.36 339.843 1018.37 339.847 1018.38 339.851L1028.71 345.812C1028.71 345.817 1028.72 345.823 1028.73 345.828C1029.28 345.363 1029.72 344.977 1030.04 344.625C1030.6 344.022 1030.68 343.697 1030.66 343.446C1030.64 343.195 1030.51 342.886 1029.86 342.377C1029.2 341.854 1028.2 341.275 1026.74 340.43L1026.74 340.429L1024.03 338.863C1022.56 338.017 1021.56 337.441 1020.78 337.132ZM1045.68 336.781C1046.73 336.414 1047.87 336.96 1048.24 338.001C1048.6 339.042 1048.06 340.184 1047.02 340.553C1045.23 341.184 1043.42 341.787 1041.6 342.357C1040.54 342.686 1039.42 342.099 1039.09 341.045C1038.76 339.991 1039.35 338.868 1040.4 338.539C1042.18 337.983 1043.94 337.397 1045.68 336.781ZM1035.1 338.191C1035.36 338.15 1035.62 338.184 1035.85 338.29L1035.97 338.348L1036.07 338.418C1036.32 338.592 1036.49 338.847 1036.57 339.139C1036.66 339.472 1036.62 339.827 1036.44 340.126C1036.27 340.424 1035.99 340.643 1035.65 340.732C1035.32 340.822 1034.96 340.775 1034.67 340.602C1034.4 340.451 1034.2 340.215 1034.1 339.934L1034.06 339.812L1034.03 339.686C1033.98 339.391 1034.04 339.086 1034.19 338.825L1034.26 338.717C1034.43 338.473 1034.69 338.296 1034.98 338.218L1035.1 338.191ZM1030.51 337.295C1031.99 334.097 1034.62 333.729 1035.97 334.115C1036.5 334.267 1036.81 334.821 1036.66 335.351C1036.5 335.882 1035.95 336.19 1035.42 336.038C1034.97 335.909 1033.37 335.879 1032.32 338.136C1032.09 338.637 1031.49 338.855 1030.99 338.623C1030.49 338.391 1030.28 337.796 1030.51 337.295ZM1066.1 327.907C1067.08 327.401 1068.28 327.786 1068.79 328.766C1069.3 329.748 1068.91 330.955 1067.93 331.462C1064.57 333.198 1061.14 334.837 1057.64 336.363C1056.62 336.804 1055.44 336.34 1055 335.328C1054.56 334.316 1055.03 333.137 1056.04 332.696C1059.46 331.206 1062.81 329.606 1066.1 327.907ZM1029.84 329.925C1030.12 329.447 1030.73 329.283 1031.21 329.558C1031.69 329.834 1031.85 330.445 1031.57 330.924L1029.02 335.349C1028.74 335.827 1028.13 335.992 1027.65 335.716C1027.17 335.44 1027.01 334.828 1027.29 334.349L1029.84 329.925ZM775.062 325.443C775.761 324.588 777.02 324.461 777.876 325.159C780.836 327.575 783.869 329.892 786.974 332.096C787.874 332.735 788.087 333.984 787.448 334.885C786.809 335.785 785.559 335.997 784.659 335.358C781.477 333.1 778.373 330.727 775.346 328.257C774.491 327.558 774.364 326.299 775.062 325.443ZM1023.47 327.736C1023.85 327.34 1024.48 327.329 1024.88 327.713C1025.89 328.688 1026.89 331.15 1024.86 334.032C1024.54 334.484 1023.92 334.593 1023.47 334.275C1023.01 333.957 1022.91 333.334 1023.22 332.883C1024.65 330.85 1023.83 329.479 1023.49 329.151C1023.09 328.767 1023.08 328.133 1023.47 327.736ZM1020.65 329.599C1020.9 329.558 1021.16 329.591 1021.39 329.697L1021.51 329.756L1021.61 329.825C1021.86 330 1022.04 330.254 1022.11 330.546C1022.2 330.879 1022.16 331.234 1021.98 331.532C1021.81 331.831 1021.53 332.05 1021.19 332.139C1020.86 332.229 1020.51 332.181 1020.21 332.009C1019.91 331.836 1019.69 331.552 1019.6 331.219C1019.51 330.886 1019.56 330.53 1019.73 330.231L1019.8 330.124C1019.97 329.881 1020.23 329.704 1020.52 329.626L1020.65 329.599ZM1034.01 329.447C1034.26 329.406 1034.52 329.44 1034.75 329.546L1034.87 329.603L1034.98 329.674C1035.22 329.848 1035.4 330.102 1035.48 330.393C1035.56 330.727 1035.52 331.083 1035.35 331.382C1035.17 331.68 1034.89 331.898 1034.56 331.987C1034.22 332.076 1033.87 332.03 1033.57 331.858C1033.27 331.686 1033.05 331.401 1032.96 331.067C1032.87 330.734 1032.92 330.379 1033.09 330.08L1033.16 329.973C1033.34 329.729 1033.59 329.552 1033.88 329.473L1034.01 329.447ZM1028.48 326.254C1028.73 326.212 1028.99 326.247 1029.22 326.352L1029.34 326.41L1029.45 326.48C1029.69 326.655 1029.87 326.909 1029.94 327.2C1030.03 327.533 1029.99 327.889 1029.81 328.187C1029.64 328.486 1029.36 328.705 1029.03 328.795C1028.69 328.884 1028.34 328.836 1028.04 328.664C1027.74 328.491 1027.52 328.207 1027.43 327.874C1027.34 327.541 1027.39 327.185 1027.56 326.887L1027.63 326.779C1027.81 326.536 1028.06 326.359 1028.35 326.281L1028.48 326.254ZM1085.31 316.547C1086.23 315.936 1087.47 316.188 1088.08 317.107C1088.69 318.027 1088.44 319.269 1087.52 319.88C1084.36 321.975 1081.16 323.998 1077.89 325.934C1076.94 326.498 1075.71 326.185 1075.15 325.235C1074.59 324.285 1074.9 323.058 1075.85 322.495C1079.05 320.596 1082.2 318.608 1085.31 316.547ZM758.211 309.579C759.004 308.811 760.27 308.832 761.038 309.625C763.699 312.376 766.432 315.053 769.234 317.642C770.045 318.392 770.094 319.658 769.344 320.469C768.595 321.279 767.329 321.329 766.518 320.58C763.659 317.937 760.874 315.208 758.163 312.406C757.395 311.612 757.417 310.347 758.211 309.579ZM1103.43 303.405C1104.3 302.726 1105.56 302.88 1106.24 303.75C1106.92 304.62 1106.77 305.878 1105.9 306.557C1102.91 308.885 1099.9 311.168 1096.84 313.39C1095.95 314.04 1094.7 313.842 1094.05 312.949C1093.4 312.056 1093.6 310.805 1094.49 310.155C1097.51 307.963 1100.48 305.708 1103.43 303.405ZM743.107 292.034C743.971 291.346 745.23 291.49 745.918 292.353C748.301 295.347 750.753 298.293 753.273 301.176C753.999 302.007 753.914 303.27 753.084 303.997C752.252 304.724 750.988 304.639 750.261 303.807C747.699 300.876 745.208 297.884 742.789 294.845C742.101 293.981 742.243 292.722 743.107 292.034ZM1120.79 289.151C1121.63 288.434 1122.89 288.534 1123.61 289.373C1124.33 290.213 1124.23 291.476 1123.39 292.193C1120.52 294.641 1117.64 297.07 1114.73 299.466C1113.87 300.167 1112.61 300.046 1111.91 299.193C1111.21 298.341 1111.33 297.08 1112.19 296.378C1115.07 294 1117.94 291.587 1120.79 289.151ZM608.794 286.429C609.897 286.376 610.835 287.228 610.887 288.331C610.94 289.434 610.087 290.372 608.984 290.425C605.102 290.61 601.266 290.715 597.505 290.756C596.4 290.767 595.495 289.882 595.483 288.777C595.471 287.673 596.358 286.769 597.463 286.757C601.178 286.717 604.964 286.612 608.794 286.429ZM574.756 286.247C578.397 286.443 582.194 286.595 586.11 286.684C587.214 286.71 588.089 287.626 588.064 288.73C588.039 289.834 587.123 290.708 586.019 290.683C582.059 290.593 578.221 290.44 574.541 290.242C573.438 290.183 572.592 289.239 572.651 288.137C572.711 287.034 573.653 286.188 574.756 286.247ZM631.36 284.385C632.454 284.234 633.463 285 633.614 286.094C633.764 287.188 632.999 288.197 631.905 288.348C628.086 288.873 624.263 289.301 620.462 289.641C619.362 289.74 618.389 288.927 618.291 287.827C618.192 286.727 619.005 285.756 620.105 285.657C623.848 285.322 627.608 284.901 631.36 284.385ZM552.092 284.368C555.517 284.75 559.32 285.129 563.431 285.471C564.532 285.562 565.351 286.529 565.259 287.63C565.168 288.73 564.201 289.549 563.1 289.458C558.948 289.113 555.107 288.729 551.649 288.344C550.551 288.221 549.76 287.231 549.883 286.134C550.005 285.036 550.995 284.246 552.092 284.368ZM529.187 281.254C531.814 281.626 533.853 281.921 535.24 282.131C536.557 282.33 538.435 282.615 540.805 282.947C541.899 283.101 542.663 284.112 542.509 285.206C542.356 286.3 541.343 287.062 540.25 286.909C537.856 286.573 535.958 286.284 534.64 286.085C533.275 285.878 531.253 285.588 528.625 285.215C527.531 285.059 526.77 284.046 526.925 282.953C527.081 281.86 528.094 281.099 529.187 281.254ZM653.53 280.056C654.599 279.778 655.692 280.419 655.97 281.488C656.249 282.557 655.608 283.649 654.54 283.928C650.827 284.895 647.064 285.74 643.277 286.473C642.193 286.683 641.145 285.974 640.934 284.89C640.724 283.806 641.432 282.756 642.516 282.546C646.226 281.827 649.905 281.001 653.53 280.056ZM729.577 273.247C730.493 272.631 731.736 272.874 732.352 273.79C734.484 276.959 736.684 280.103 738.952 283.21C739.603 284.102 739.407 285.352 738.516 286.004C737.624 286.655 736.373 286.46 735.721 285.568C733.423 282.419 731.194 279.232 729.035 276.023C728.419 275.107 728.661 273.863 729.577 273.247ZM1137.8 274.379C1138.63 273.652 1139.89 273.736 1140.62 274.567C1141.35 275.399 1141.26 276.662 1140.43 277.389C1137.6 279.861 1134.77 282.341 1131.94 284.811C1131.1 285.536 1129.84 285.45 1129.11 284.617C1128.39 283.784 1128.48 282.52 1129.31 281.795C1132.14 279.328 1134.97 276.853 1137.8 274.379ZM504.748 277.784C509.228 278.428 513.314 279.009 516.962 279.526C518.055 279.681 518.817 280.694 518.662 281.787C518.507 282.88 517.493 283.641 516.4 283.486C512.751 282.969 508.662 282.388 504.178 281.743C503.085 281.586 502.327 280.572 502.484 279.478C502.641 278.385 503.655 277.627 504.748 277.784ZM674.781 272.721C675.79 272.271 676.972 272.725 677.422 273.733C677.871 274.742 677.418 275.924 676.41 276.374C672.904 277.937 669.296 279.344 665.614 280.605C664.569 280.963 663.431 280.406 663.073 279.361C662.715 278.316 663.272 277.179 664.317 276.821C667.896 275.595 671.392 274.232 674.781 272.721ZM480.358 274.213C484.616 274.848 488.688 275.45 492.554 276.015C493.647 276.176 494.403 277.191 494.243 278.284C494.083 279.376 493.068 280.132 491.975 279.973C488.105 279.406 484.03 278.804 479.768 278.169C478.676 278.006 477.923 276.988 478.086 275.895C478.249 274.803 479.266 274.05 480.358 274.213ZM456.002 270.509C460.187 271.158 464.258 271.783 468.204 272.383C469.295 272.549 470.046 273.568 469.881 274.66C469.715 275.752 468.695 276.503 467.603 276.338C463.654 275.737 459.578 275.111 455.388 274.462C454.297 274.292 453.549 273.27 453.718 272.179C453.888 271.087 454.91 270.34 456.002 270.509ZM-286.438 266.989C-285.959 265.994 -284.764 265.574 -283.769 266.053C-282.774 266.531 -282.355 267.727 -282.833 268.723C-283.61 270.336 -284.398 271.969 -285.201 273.617C-285.685 274.609 -286.884 275.022 -287.876 274.539C-288.869 274.055 -289.282 272.857 -288.798 271.864C-287.999 270.224 -287.212 268.599 -286.438 266.989ZM429.369 268.314C429.545 267.224 430.572 266.483 431.663 266.659C435.804 267.327 439.871 267.976 443.852 268.605C444.943 268.778 445.687 269.803 445.514 270.893C445.342 271.984 444.318 272.73 443.227 272.557C439.242 271.927 435.171 271.276 431.025 270.607C429.935 270.431 429.193 269.405 429.369 268.314ZM694.057 261.465C694.936 260.796 696.19 260.966 696.859 261.845C697.528 262.724 697.358 263.979 696.479 264.648C693.398 266.993 690.151 269.138 686.77 271.098C685.815 271.652 684.591 271.327 684.037 270.372C683.483 269.417 683.808 268.193 684.763 267.639C688.01 265.755 691.117 263.702 694.057 261.465ZM1154.91 259.633C1155.76 258.923 1157.02 259.032 1157.73 259.877C1158.44 260.722 1158.33 261.985 1157.48 262.695C1154.62 265.101 1151.77 267.539 1148.93 269.995C1148.09 270.717 1146.83 270.623 1146.1 269.788C1145.38 268.952 1145.47 267.691 1146.31 266.969C1149.16 264.504 1152.03 262.054 1154.91 259.633ZM405.068 264.296C405.252 263.207 406.283 262.472 407.372 262.655C411.475 263.345 415.527 264.02 419.52 264.678C420.61 264.857 421.348 265.887 421.169 266.976C420.989 268.066 419.959 268.804 418.87 268.625C414.872 267.966 410.815 267.292 406.708 266.6C405.619 266.417 404.885 265.385 405.068 264.296ZM717.437 253.532C718.393 252.979 719.616 253.305 720.17 254.26C722.077 257.552 724.053 260.848 726.098 264.13C726.682 265.067 726.397 266.3 725.46 266.885C724.522 267.469 723.288 267.182 722.704 266.245C720.635 262.925 718.637 259.593 716.709 256.265C716.155 255.31 716.482 254.086 717.437 253.532ZM380.761 260.102C380.953 259.015 381.99 258.288 383.078 258.479C387.16 259.197 391.21 259.9 395.217 260.589C396.305 260.776 397.036 261.811 396.849 262.899C396.662 263.987 395.627 264.717 394.539 264.53C390.526 263.84 386.473 263.137 382.385 262.419C381.298 262.228 380.57 261.19 380.761 260.102ZM356.511 255.726C356.711 254.64 357.754 253.922 358.841 254.122C362.902 254.869 366.943 255.602 370.958 256.324C372.045 256.52 372.767 257.56 372.572 258.647C372.376 259.734 371.337 260.458 370.25 260.263C366.23 259.54 362.183 258.804 358.116 258.056C357.03 257.855 356.312 256.813 356.511 255.726ZM-276.979 247.448C-276.484 246.461 -275.281 246.062 -274.293 246.556C-273.306 247.052 -272.907 248.254 -273.402 249.241C-274.984 252.398 -276.555 255.631 -278.149 258.947C-278.627 259.942 -279.822 260.361 -280.818 259.883C-281.813 259.404 -282.232 258.209 -281.753 257.214C-280.156 253.89 -278.575 250.634 -276.979 247.448ZM706.557 233.131C707.545 232.637 708.747 233.038 709.241 234.025C710.094 235.732 710.963 237.431 711.846 239.123C712.729 240.812 713.629 242.509 714.548 244.209C715.072 245.18 714.71 246.395 713.739 246.92C713.649 246.968 713.556 247.007 713.463 247.041C713.397 247.28 713.287 247.511 713.128 247.721C711.866 249.377 710.563 251.006 709.216 252.603C707.951 254.103 706.632 255.545 705.264 256.934C704.49 257.721 703.223 257.732 702.436 256.957C701.649 256.182 701.639 254.916 702.414 254.129C703.711 252.811 704.96 251.443 706.158 250.023C707.461 248.479 708.723 246.902 709.945 245.297C710.069 245.134 710.212 244.995 710.37 244.882C709.67 243.576 708.979 242.274 708.3 240.974C707.406 239.262 706.527 237.541 705.664 235.813C705.17 234.825 705.57 233.625 706.557 233.131ZM1173.09 245.066C1173.97 244.396 1175.23 244.563 1175.9 245.44C1176.57 246.318 1176.4 247.573 1175.52 248.244C1173.86 249.515 1172.2 250.796 1170.55 252.083C1169.08 253.231 1167.61 254.391 1166.15 255.562C1165.29 256.254 1164.03 256.116 1163.34 255.255C1162.65 254.393 1162.79 253.135 1163.65 252.443C1165.12 251.26 1166.61 250.088 1168.09 248.928C1169.75 247.634 1171.42 246.346 1173.09 245.066ZM332.284 251.14C332.494 250.056 333.542 249.347 334.627 249.556C338.671 250.338 342.707 251.108 346.728 251.866C347.813 252.071 348.527 253.116 348.323 254.201C348.118 255.286 347.073 256.001 345.988 255.797C341.961 255.038 337.92 254.266 333.869 253.483C332.784 253.274 332.074 252.225 332.284 251.14ZM308.109 246.322C308.33 245.24 309.386 244.542 310.468 244.763C314.493 245.583 318.519 246.392 322.541 247.19C323.624 247.406 324.328 248.458 324.113 249.541C323.898 250.624 322.846 251.328 321.762 251.113C317.734 250.314 313.701 249.503 309.67 248.681C308.587 248.461 307.888 247.404 308.109 246.322ZM284.29 241.274C284.529 240.196 285.597 239.517 286.675 239.756C288.581 240.178 290.486 240.592 292.387 240.997C294.392 241.424 296.399 241.848 298.408 242.269C299.488 242.496 300.181 243.556 299.955 244.637C299.728 245.718 298.668 246.411 297.587 246.184C295.574 245.762 293.563 245.337 291.554 244.91C289.642 244.503 287.726 244.086 285.809 243.661C284.731 243.422 284.051 242.353 284.29 241.274ZM1472.22 238.78C1472.61 237.748 1473.76 237.231 1474.8 237.623C1476.58 238.302 1478.37 238.974 1480.15 239.641C1481.19 240.028 1481.71 241.18 1481.32 242.215C1480.94 243.249 1479.79 243.775 1478.75 243.389C1476.96 242.718 1475.16 242.041 1473.37 241.36C1472.34 240.967 1471.82 239.812 1472.22 238.78ZM1193.59 230.223C1194.51 229.604 1195.75 229.842 1196.37 230.756C1196.99 231.669 1196.75 232.913 1195.84 233.533C1192.38 235.878 1188.97 238.286 1185.58 240.741C1184.69 241.39 1183.44 241.191 1182.79 240.298C1182.14 239.404 1182.34 238.154 1183.23 237.505C1186.65 235.027 1190.1 232.595 1193.59 230.223ZM261.452 235.779C261.723 234.709 262.812 234.06 263.883 234.331C267.683 235.292 271.476 236.226 275.26 237.128C276.335 237.384 276.999 238.463 276.743 239.537C276.487 240.611 275.408 241.274 274.334 241.018C270.53 240.112 266.719 239.175 262.901 238.209C261.83 237.938 261.181 236.85 261.452 235.779ZM-266.396 228.316C-265.808 227.381 -264.574 227.1 -263.639 227.686C-262.704 228.274 -262.421 229.508 -263.008 230.443C-264.89 233.441 -266.681 236.525 -268.42 239.698C-268.951 240.666 -270.166 241.021 -271.134 240.491C-272.103 239.96 -272.458 238.745 -271.927 237.776C-270.157 234.547 -268.327 231.393 -266.396 228.316ZM722.902 224.777C723.417 223.801 724.627 223.426 725.603 223.94C726.58 224.456 726.954 225.667 726.439 226.643C724.5 230.32 722.436 233.928 720.227 237.445C719.64 238.38 718.406 238.662 717.47 238.075C716.535 237.488 716.252 236.253 716.84 235.318C718.99 231.894 721.005 228.374 722.902 224.777ZM1450.86 230.414C1451.27 229.388 1452.43 228.885 1453.45 229.292C1457 230.7 1460.56 232.104 1464.11 233.496C1465.14 233.898 1465.65 235.058 1465.25 236.087C1464.85 237.115 1463.69 237.622 1462.66 237.221C1459.09 235.826 1455.53 234.419 1451.98 233.011C1450.95 232.603 1450.45 231.441 1450.86 230.414ZM238.76 229.706C239.055 228.642 240.157 228.018 241.221 228.312C245 229.359 248.773 230.385 252.537 231.386C253.604 231.67 254.239 232.766 253.956 233.833C253.672 234.9 252.576 235.534 251.508 235.251C247.73 234.246 243.944 233.216 240.153 232.166C239.089 231.871 238.466 230.77 238.76 229.706ZM216.191 223.208C216.503 222.149 217.615 221.543 218.674 221.855C222.434 222.963 226.188 224.056 229.935 225.13C230.997 225.434 231.611 226.541 231.307 227.602C231.003 228.664 229.894 229.278 228.833 228.973C225.076 227.896 221.313 226.802 217.545 225.691C216.485 225.379 215.879 224.267 216.191 223.208ZM1429.53 221.976C1429.93 220.948 1431.09 220.441 1432.12 220.844C1435.68 222.238 1439.24 223.646 1442.8 225.058C1443.82 225.466 1444.32 226.629 1443.92 227.655C1443.51 228.682 1442.35 229.184 1441.32 228.777C1437.76 227.366 1434.21 225.961 1430.66 224.569C1429.63 224.166 1429.13 223.005 1429.53 221.976ZM1215.13 216.835C1216.09 216.295 1217.31 216.638 1217.85 217.6C1218.39 218.564 1218.05 219.783 1217.09 220.324C1213.45 222.364 1209.87 224.494 1206.33 226.699C1205.39 227.283 1204.16 226.997 1203.57 226.059C1202.99 225.122 1203.28 223.889 1204.21 223.305C1207.8 221.069 1211.44 218.907 1215.13 216.835ZM697.131 212.109C698.151 211.688 699.32 212.174 699.742 213.194C701.197 216.718 702.718 220.219 704.303 223.694C704.762 224.699 704.319 225.885 703.314 226.344C702.309 226.802 701.123 226.359 700.665 225.354C699.06 221.835 697.519 218.289 696.046 214.721C695.624 213.7 696.11 212.531 697.131 212.109ZM-253.2 210.714C-252.458 209.896 -251.193 209.834 -250.374 210.575C-249.556 211.317 -249.494 212.582 -250.236 213.4C-252.646 216.061 -254.883 218.802 -256.989 221.626C-257.649 222.511 -258.902 222.694 -259.787 222.034C-260.673 221.374 -260.855 220.12 -260.195 219.234C-258.019 216.316 -255.701 213.475 -253.2 210.714ZM193.708 216.422C194.031 215.366 195.149 214.771 196.205 215.095C199.953 216.242 203.696 217.379 207.432 218.504C208.49 218.822 209.089 219.938 208.771 220.996C208.453 222.053 207.337 222.653 206.279 222.335C202.536 221.208 198.787 220.068 195.035 218.92C193.979 218.597 193.385 217.478 193.708 216.422ZM1408.08 213.854C1408.46 212.818 1409.61 212.284 1410.64 212.664C1414.23 213.98 1417.82 215.326 1421.41 216.695C1422.44 217.089 1422.96 218.246 1422.56 219.277C1422.17 220.309 1421.01 220.826 1419.98 220.432C1416.41 219.069 1412.84 217.729 1409.27 216.421C1408.23 216.041 1407.7 214.891 1408.08 213.854ZM732.993 202.564C733.399 201.538 734.562 201.035 735.589 201.441C736.615 201.848 737.12 203.01 736.714 204.037C735.192 207.881 733.59 211.698 731.888 215.467C731.434 216.473 730.248 216.92 729.242 216.466C728.236 216.011 727.788 214.827 728.243 213.82C729.915 210.117 731.492 206.358 732.993 202.564ZM171.271 209.473C171.6 208.418 172.722 207.829 173.776 208.157C177.518 209.323 181.256 210.485 184.988 211.64C186.043 211.967 186.634 213.088 186.307 214.142C185.981 215.197 184.86 215.788 183.805 215.462C180.07 214.306 176.33 213.143 172.587 211.976C171.532 211.648 170.943 210.527 171.271 209.473ZM1237.93 205.616C1238.94 205.188 1240.12 205.665 1240.55 206.682C1240.97 207.7 1240.5 208.873 1239.48 209.303C1235.64 210.923 1231.86 212.657 1228.13 214.494C1227.14 214.983 1225.94 214.576 1225.46 213.586C1224.97 212.595 1225.37 211.397 1226.36 210.908C1230.15 209.038 1234.01 207.269 1237.93 205.616ZM1386.37 206.462C1386.7 205.41 1387.83 204.83 1388.88 205.166C1392.53 206.331 1396.17 207.547 1399.8 208.803C1400.85 209.163 1401.4 210.302 1401.04 211.346C1400.68 212.389 1399.54 212.943 1398.5 212.583C1394.89 211.336 1391.28 210.131 1387.66 208.975C1386.61 208.639 1386.03 207.514 1386.37 206.462ZM148.849 202.477C149.178 201.423 150.3 200.834 151.354 201.162C155.095 202.327 158.833 203.495 162.566 204.66C163.62 204.989 164.208 206.111 163.88 207.165C163.55 208.219 162.429 208.807 161.375 208.478C157.642 207.313 153.905 206.146 150.165 204.981C149.11 204.653 148.521 203.532 148.849 202.477ZM-236.837 195.951C-235.949 195.296 -234.696 195.483 -234.04 196.372C-233.385 197.261 -233.574 198.513 -234.462 199.169C-237.414 201.346 -240.152 203.587 -242.709 205.891C-243.53 206.631 -244.794 206.565 -245.534 205.745C-246.273 204.924 -246.208 203.659 -245.387 202.92C-242.733 200.528 -239.893 198.205 -236.837 195.951ZM1364.29 200.25C1364.56 199.179 1365.64 198.529 1366.72 198.799C1370.44 199.736 1374.15 200.744 1377.85 201.81C1378.91 202.116 1379.52 203.224 1379.22 204.285C1378.91 205.346 1377.8 205.959 1376.74 205.654C1373.08 204.599 1369.41 203.604 1365.74 202.679C1364.67 202.409 1364.02 201.321 1364.29 200.25ZM689.277 190.452C690.326 190.109 691.456 190.68 691.8 191.729C692.986 195.349 694.244 198.953 695.57 202.536C695.953 203.572 695.424 204.723 694.388 205.106C693.353 205.489 692.203 204.961 691.819 203.926C690.475 200.295 689.2 196.643 687.999 192.975C687.655 191.926 688.228 190.796 689.277 190.452ZM1261.98 197.299C1263.04 197.011 1264.14 197.642 1264.43 198.708C1264.72 199.774 1264.08 200.871 1263.02 201.16C1258.98 202.252 1255.02 203.48 1251.12 204.832C1250.07 205.194 1248.93 204.641 1248.57 203.598C1248.21 202.554 1248.76 201.414 1249.81 201.053C1253.79 199.672 1257.84 198.415 1261.98 197.299ZM126.407 195.55C126.73 194.494 127.848 193.899 128.904 194.223C132.651 195.369 136.395 196.522 140.134 197.679C141.189 198.005 141.781 199.126 141.455 200.181C141.128 201.235 140.008 201.826 138.953 201.5C135.216 200.344 131.476 199.192 127.734 198.048C126.678 197.725 126.084 196.606 126.407 195.55ZM1341.81 195.714C1341.99 194.624 1343.02 193.886 1344.11 194.064C1347.91 194.688 1351.69 195.403 1355.47 196.196C1356.55 196.424 1357.24 197.484 1357.01 198.564C1356.78 199.645 1355.72 200.337 1354.64 200.11C1350.93 199.328 1347.2 198.626 1343.46 198.012C1342.37 197.832 1341.63 196.804 1341.81 195.714ZM1286.41 192.521C1287.51 192.386 1288.51 193.164 1288.64 194.26C1288.78 195.356 1288 196.354 1286.9 196.49C1285.04 196.721 1283.16 196.983 1281.28 197.275C1279.22 197.597 1277.17 197.955 1275.15 198.348C1274.06 198.557 1273.01 197.848 1272.8 196.764C1272.59 195.68 1273.3 194.631 1274.39 194.421C1276.46 194.019 1278.55 193.651 1280.67 193.322C1282.59 193.023 1284.5 192.757 1286.41 192.521ZM1321.12 191.472C1324.98 191.699 1328.82 192.035 1332.65 192.47C1333.75 192.594 1334.54 193.585 1334.41 194.682C1334.29 195.78 1333.3 196.569 1332.2 196.444C1328.44 196.017 1324.67 195.688 1320.88 195.465C1319.78 195.399 1318.94 194.453 1319 193.35C1319.07 192.248 1320.02 191.407 1321.12 191.472ZM1309.54 191.122C1310.65 191.123 1311.54 192.02 1311.54 193.124C1311.54 194.228 1310.64 195.123 1309.54 195.122C1305.78 195.119 1302 195.226 1298.2 195.455C1297.1 195.521 1296.15 194.681 1296.08 193.579C1296.02 192.477 1296.86 191.529 1297.96 191.463C1301.84 191.229 1305.7 191.119 1309.54 191.122ZM103.908 188.805C104.22 187.745 105.333 187.139 106.392 187.451C110.15 188.559 113.906 189.679 117.658 190.808C118.715 191.127 119.315 192.242 118.997 193.3C118.678 194.357 117.562 194.957 116.505 194.639C112.759 193.511 109.011 192.393 105.261 191.288C104.202 190.976 103.596 189.864 103.908 188.805ZM741.267 179.493C741.615 178.445 742.748 177.877 743.797 178.224C744.844 178.573 745.413 179.705 745.065 180.753C743.775 184.643 742.445 188.546 741.057 192.441C740.687 193.481 739.543 194.025 738.503 193.655C737.462 193.284 736.919 192.14 737.29 191.099C738.665 187.239 739.984 183.363 741.267 179.493ZM-217.277 184.012C-216.295 183.506 -215.089 183.892 -214.583 184.874C-214.078 185.856 -214.463 187.062 -215.445 187.568C-217.314 188.531 -219.162 189.52 -220.985 190.536C-222.576 191.423 -224.118 192.323 -225.611 193.233C-226.553 193.808 -227.784 193.511 -228.36 192.568C-228.935 191.625 -228.637 190.395 -227.695 189.819C-226.156 188.881 -224.569 187.955 -222.933 187.043C-221.071 186.005 -219.184 184.994 -217.277 184.012ZM81.3239 182.352C81.6204 181.289 82.7238 180.666 83.7878 180.962C87.5618 182.012 91.3339 183.081 95.1032 184.164C96.1645 184.469 96.778 185.577 96.4733 186.639C96.1682 187.7 95.0601 188.312 93.9987 188.008C90.2391 186.928 86.4771 185.863 82.7145 184.815C81.6508 184.519 81.0279 183.416 81.3239 182.352ZM683.123 168.252C684.196 167.993 685.277 168.652 685.537 169.725C686.431 173.424 687.402 177.113 688.449 180.788C688.751 181.85 688.137 182.957 687.075 183.26C686.013 183.562 684.906 182.946 684.603 181.884C683.542 178.158 682.555 174.417 681.648 170.666C681.389 169.592 682.049 168.511 683.123 168.252ZM-193.825 173.656C-192.791 173.268 -191.638 173.791 -191.249 174.824C-190.861 175.858 -191.385 177.012 -192.418 177.4C-196.378 178.888 -200.27 180.472 -204.086 182.152C-205.097 182.597 -206.278 182.139 -206.723 181.129C-207.168 180.118 -206.709 178.937 -205.699 178.492C-201.812 176.78 -197.851 175.169 -193.825 173.656ZM58.6266 176.315C58.9012 175.246 59.9907 174.601 61.0602 174.875C64.8549 175.848 68.649 176.844 72.4401 177.86C73.5067 178.146 74.14 179.244 73.8542 180.31C73.5681 181.377 72.4716 182.01 71.405 181.724C67.6268 180.712 63.847 179.718 60.0671 178.749C58.9974 178.474 58.3525 177.385 58.6266 176.315ZM35.7936 170.818C36.04 169.742 37.1126 169.068 38.1891 169.314C42.0084 170.188 45.8273 171.092 49.6442 172.021C50.7171 172.283 51.3757 173.363 51.1149 174.436C50.8538 175.509 49.7719 176.169 48.6989 175.908C44.8988 174.983 41.0971 174.085 37.2966 173.215C36.2202 172.968 35.5473 171.895 35.7936 170.818ZM-169.444 165.859C-168.377 165.573 -167.279 166.205 -166.993 167.271C-166.706 168.338 -167.339 169.436 -168.406 169.723C-172.489 170.819 -176.527 172.001 -180.51 173.271C-181.562 173.607 -182.687 173.026 -183.023 171.974C-183.358 170.922 -182.778 169.797 -181.726 169.461C-177.682 168.171 -173.585 166.971 -169.444 165.859ZM12.8073 165.995C13.0193 164.911 14.0702 164.204 15.154 164.416C19.0008 165.168 22.8484 165.955 26.694 166.774C27.7739 167.005 28.464 168.067 28.2341 169.147C28.0038 170.227 26.9402 170.916 25.86 170.686C22.0355 169.872 18.2111 169.089 14.3874 168.342C13.3034 168.13 12.5955 167.079 12.8073 165.995ZM748.706 156.396C749.035 155.342 750.157 154.753 751.212 155.082C752.266 155.411 752.853 156.534 752.524 157.588C751.833 159.802 751.235 161.679 750.758 163.162C750.132 165.112 749.51 167.054 748.878 169.024C748.54 170.076 747.413 170.655 746.362 170.317C745.311 169.979 744.732 168.853 745.07 167.802C745.698 165.846 746.327 163.879 746.95 161.939C747.424 160.462 748.019 158.597 748.706 156.396ZM-144.482 160.282C-143.395 160.085 -142.354 160.806 -142.157 161.892C-141.96 162.979 -142.681 164.021 -143.768 164.219C-147.924 164.972 -152.054 165.802 -156.147 166.715C-157.225 166.955 -158.294 166.276 -158.535 165.198C-158.775 164.12 -158.095 163.051 -157.017 162.81C-152.87 161.886 -148.689 161.044 -144.482 160.282ZM-10.3362 161.991C-10.1657 160.9 -9.14236 160.154 -8.05109 160.324C-4.17679 160.929 -0.301422 161.575 3.57294 162.26C4.66006 162.452 5.3866 163.489 5.19501 164.576C5.00293 165.663 3.96503 166.39 2.87762 166.198C-0.97168 165.518 -4.8212 164.876 -8.66827 164.275C-9.75931 164.105 -10.5064 163.082 -10.3362 161.991ZM-31.4173 157.192C-27.5175 157.624 -23.6163 158.104 -19.7151 158.628C-18.6208 158.775 -17.8526 159.781 -17.9993 160.876C-18.1464 161.97 -19.1529 162.738 -20.2474 162.592C-24.119 162.072 -27.9897 161.597 -31.8577 161.169C-32.9553 161.047 -33.7466 160.058 -33.6253 158.961C-33.5036 157.863 -32.515 157.071 -31.4173 157.192ZM-119.181 156.667C-118.083 156.55 -117.097 157.346 -116.98 158.444C-116.863 159.542 -117.66 160.527 -118.758 160.644C-122.951 161.09 -127.134 161.608 -131.298 162.202C-132.392 162.358 -133.404 161.598 -133.56 160.505C-133.716 159.411 -132.956 158.399 -131.863 158.243C-127.65 157.643 -123.42 157.118 -119.181 156.667ZM678.815 145.623C679.907 145.455 680.927 146.204 681.095 147.296C681.673 151.054 682.336 154.81 683.079 158.557C683.293 159.64 682.588 160.692 681.506 160.907C680.422 161.122 679.37 160.418 679.155 159.335C678.401 155.532 677.73 151.719 677.143 147.903C676.976 146.812 677.724 145.791 678.815 145.623ZM-55.4007 155.165C-53.2685 155.285 -51.1438 155.422 -49.0296 155.575C-47.0716 155.717 -45.1123 155.872 -43.1536 156.04C-42.0536 156.135 -41.2373 157.103 -41.3314 158.203C-41.4257 159.303 -42.3945 160.119 -43.4945 160.025C-45.436 159.859 -47.3783 159.705 -49.3187 159.564C-51.4114 159.413 -53.5145 159.278 -55.6253 159.159C-56.7281 159.097 -57.5713 158.152 -57.5091 157.049C-57.4466 155.946 -56.5032 155.103 -55.4007 155.165ZM-93.7015 154.827C-92.5981 154.784 -91.6685 155.643 -91.6253 156.747C-91.5823 157.85 -92.4418 158.781 -93.5452 158.824C-97.7488 158.988 -101.959 159.22 -106.167 159.523C-107.269 159.603 -108.227 158.773 -108.306 157.672C-108.385 156.57 -107.556 155.613 -106.454 155.534C-102.202 155.228 -97.948 154.993 -93.7015 154.827ZM-80.931 154.534C-76.6558 154.504 -72.3952 154.544 -68.1595 154.648C-67.0558 154.676 -66.1823 155.592 -66.2093 156.696C-66.2366 157.8 -67.155 158.673 -68.2591 158.646C-72.453 158.543 -76.6709 158.505 -80.9036 158.534C-82.0081 158.542 -82.9095 157.652 -82.9173 156.548C-82.9248 155.443 -82.0354 154.542 -80.931 154.534ZM755.225 134.059C755.514 132.994 756.613 132.363 757.679 132.652C758.745 132.941 759.376 134.04 759.087 135.106C757.989 139.152 756.915 142.938 755.908 146.389C755.598 147.449 754.487 148.057 753.427 147.748C752.367 147.438 751.759 146.328 752.068 145.268C753.069 141.84 754.135 138.078 755.225 134.059ZM676.525 122.701C677.627 122.634 678.575 123.472 678.643 124.574C678.876 128.367 679.199 132.165 679.61 135.961C679.729 137.059 678.935 138.045 677.838 138.164C676.74 138.283 675.752 137.489 675.633 136.391C675.216 132.535 674.888 128.676 674.651 124.82C674.584 123.718 675.423 122.769 676.525 122.701ZM760.837 111.481C761.078 110.404 762.148 109.726 763.225 109.968C764.303 110.21 764.981 111.28 764.74 112.357C763.864 116.263 762.955 120.08 762.039 123.763C761.772 124.834 760.686 125.486 759.615 125.22C758.543 124.953 757.89 123.868 758.157 122.797C759.067 119.141 759.968 115.354 760.837 111.481ZM676.427 99.6688C677.531 99.7102 678.392 100.638 678.351 101.741C678.21 105.538 678.167 109.346 678.216 113.159C678.231 114.263 677.347 115.171 676.243 115.185C675.139 115.2 674.231 114.316 674.216 113.212C674.166 109.333 674.212 105.458 674.355 101.594C674.396 100.49 675.324 99.6281 676.427 99.6688ZM765.285 88.6766C765.462 87.5865 766.491 86.8469 767.581 87.0243C768.67 87.202 769.409 88.2293 769.232 89.3192C768.602 93.1922 767.903 97.0573 767.155 100.877C766.942 101.961 765.891 102.667 764.807 102.455C763.724 102.242 763.017 101.191 763.229 100.107C763.97 96.3257 764.662 92.5032 765.285 88.6766ZM678.697 76.7479C679.79 76.9057 680.549 77.9205 680.391 79.0135C679.849 82.7756 679.409 86.555 679.07 90.3475C678.972 91.4475 678 92.2601 676.9 92.162C675.8 92.0633 674.988 91.092 675.087 89.992C675.432 86.1287 675.88 82.277 676.432 78.4422C676.59 77.3495 677.604 76.5907 678.697 76.7479ZM770.192 63.8211C771.294 63.8996 772.124 64.8571 772.046 65.9588C771.772 69.8139 771.382 73.7349 770.899 77.6825C770.765 78.7786 769.768 79.5592 768.672 79.4256C767.575 79.2913 766.795 78.2934 766.929 77.1971C767.405 73.3082 767.788 69.4546 768.056 65.6747C768.135 64.5731 769.09 63.7431 770.192 63.8211ZM681.033 55.6473C681.313 54.5792 682.406 53.9392 683.474 54.2186C684.542 54.4987 685.182 55.5928 684.902 56.661C683.938 60.3417 683.081 64.0465 682.331 67.7713C682.113 68.854 681.058 69.5547 679.975 69.3368C678.893 69.1183 678.193 68.0639 678.411 66.9813C679.176 63.1825 680.049 59.403 681.033 55.6473ZM770.306 46.325C771.41 46.279 772.343 47.1366 772.389 48.2401C772.47 50.1764 772.505 52.1499 772.501 54.1532C772.498 55.2575 771.6 56.1509 770.496 56.1483C769.391 56.1454 768.499 55.2478 768.502 54.1434C768.506 52.1943 768.471 50.2801 768.392 48.4071C768.346 47.3037 769.203 46.3715 770.306 46.325ZM688.602 33.1756C689.074 32.1776 690.267 31.7501 691.265 32.2215C692.264 32.6935 692.691 33.8862 692.219 34.8846C691.364 36.6943 690.608 38.5144 689.959 40.3241C689.316 42.1152 688.7 43.9146 688.112 45.7196C687.77 46.7694 686.641 47.3434 685.591 47.0018C684.542 46.6595 683.967 45.5304 684.309 44.4803C684.909 42.638 685.538 40.802 686.194 38.9735C686.888 37.0388 687.693 35.0987 688.602 33.1756ZM771.773 18.7811L778.265 24.0077C778.965 24.5709 779.462 25.347 779.681 26.2176C779.901 27.0887 779.831 28.0091 779.482 28.8368L779.006 29.9598C778.759 30.5393 778.381 31.0549 777.904 31.4666C777.427 31.8783 776.861 32.1755 776.252 32.3358C775.642 32.4958 775.004 32.5152 774.386 32.3915C773.769 32.2675 773.187 32.0036 772.686 31.6209L772.674 31.6131L772.664 31.6043L768.682 28.4139L764.822 37.534L764.693 37.8202C764.014 39.2248 762.836 40.332 761.383 40.9207C759.834 41.5487 758.097 41.5352 756.557 40.8836C755.018 40.2318 753.8 38.9946 753.172 37.4452C752.544 35.8955 752.557 34.1588 753.209 32.619C753.86 31.0794 755.098 29.8612 756.647 29.2332C758.197 28.6054 759.933 28.6189 761.472 29.2704C762.744 29.8088 763.798 30.747 764.479 31.9305L770.484 17.743L771.773 18.7811ZM760.498 31.5721C759.569 31.1792 758.521 31.1709 757.586 31.5497C756.651 31.9286 755.905 32.6647 755.511 33.5936C755.118 34.5228 755.109 35.5715 755.488 36.5067C755.867 37.4415 756.603 38.1876 757.532 38.5809C758.461 38.9741 759.51 38.9833 760.445 38.6043C761.38 38.2253 762.127 37.4886 762.52 36.5594C762.913 35.6304 762.921 34.5822 762.543 33.6473C762.164 32.7124 761.427 31.9654 760.498 31.5721ZM769.695 26.0213L774.205 29.6346C774.403 29.786 774.633 29.8912 774.878 29.9403C775.122 29.9892 775.376 29.9822 775.617 29.9188C775.858 29.8554 776.081 29.7369 776.27 29.5741C776.458 29.4121 776.608 29.2098 776.706 28.9823L777.178 27.8651L777.225 27.7401C777.322 27.4467 777.333 27.1302 777.257 26.829C777.171 26.4848 776.973 26.1776 776.697 25.9549L771.496 21.7665L769.695 26.0213ZM703.189 12.9198C703.992 12.1621 705.258 12.1986 706.016 13.0008C706.774 13.8039 706.738 15.0698 705.935 15.828C703.086 18.517 700.494 21.5236 698.206 24.7147C697.562 25.6117 696.313 25.8179 695.416 25.1747C694.518 24.5311 694.313 23.2811 694.956 22.3836C697.383 18.9992 700.141 15.7968 703.189 12.9198ZM756.586 10.244C757.445 9.5506 758.704 9.6851 759.398 10.5438C760.361 11.7368 761.676 13.241 763.455 15.1278C764.212 15.9313 764.175 17.1972 763.372 17.9549C762.568 18.7124 761.302 18.6751 760.545 17.8719C758.716 15.933 757.331 14.3504 756.287 13.0575C755.593 12.1981 755.726 10.9379 756.586 10.244ZM725.058 0.576022C726.133 0.320016 727.211 0.98432 727.467 2.05844C727.723 3.1326 727.06 4.21132 725.986 4.46762C722.236 5.36186 718.651 6.84843 715.275 8.80161C714.319 9.35473 713.095 9.02711 712.542 8.07114C711.989 7.11517 712.315 5.89171 713.271 5.33872C716.948 3.21137 720.894 1.56917 725.058 0.576022ZM737.799 -0.325345C739.875 -0.129434 741.98 0.234938 744.107 0.782077L744.247 0.819186L744.38 0.873874C746.736 1.85886 748.624 2.60241 750.13 3.16098C751.165 3.54516 751.694 4.69683 751.31 5.73227C750.926 6.76754 749.774 7.29558 748.739 6.91196C747.205 6.34297 745.315 5.59669 742.988 4.62583C741.104 4.14791 739.248 3.82831 737.423 3.6561C736.324 3.55201 735.517 2.57688 735.621 1.47739C735.725 0.37824 736.7 -0.428873 737.799 -0.325345Z" fill="#BCD3F7"/>
</g>
<defs>
<clipPath id="clip0_917_719">
<rect width="1440" height="366" fill="white"/>
</clipPath>
</defs>
</svg>
